# xmcd
#
# Track frame offsets: 
#        150
#        24710
#        67127
#        98365
#        120252
#        138375
#        158622
#        173217
#        193355
#        210117
#        231760
#        254740
#
# Disc length: 3734 seconds
#
# Revision: 4
# Processed by: cddbd v1.5.2PL0 Copyright (c) Steve Scherf et al.
# Submitted via: ExactAudioCopyFreeDBPlugin 1.0
#
DISCID=a00e940c
DTITLE=Various Artist - Smooth Grooves:  Ladies Men [Rhino]
DYEAR=2002
DGENRE=SMB
TTITLE0=Teddy Pendergrass - Close the Door
TTITLE1=Tony! Toni! Toné! - Anniversary
TTITLE2=Barry White - It's Ecstasy When You Lay Down Next to Me
TTITLE3=Keith Sweat - How Deep is Your Love
TTITLE4=Al B. Sure! - Night and Day
TTITLE5=Silk - Girl U for Me
TTITLE6=Al Green - I'm Still in Love with You
TTITLE7=L.T.D. - Love Ballad
TTITLE8=Luther Vandross - So Amazing
TTITLE9=Howard Hewett - I'm for Real
TTITLE10=Troop - I Will Always Love You
TTITLE11=The Isley Brothers - Between the Sheets
EXTD=YEAR: 2002 ID3G:  14
EXTT0=
EXTT1=
EXTT2=
EXTT3=
EXTT4=
EXTT5=
EXTT6=
EXTT7=
EXTT8=
EXTT9=
EXTT10=
EXTT11=
PLAYORDER=
